<svg width="289" height="503" viewBox="0 0 289 503" fill="none" xmlns="http://www.w3.org/2000/svg">
<g id="main_img">
<g id="landinPageImg">
<path id="Vector" d="M111.681 271.877C111.619 270.96 111.377 270.064 110.968 269.24C110.56 268.417 109.993 267.682 109.301 267.077L98.1704 257.377C96.863 256.236 95.178 255.621 93.4428 255.653C91.7076 255.684 90.046 256.359 88.7807 257.547C88.6105 257.704 88.4502 257.871 88.3007 258.047L59.2407 291.367L56.0605 295.007L7.44041 350.757C6.22439 352.159 5.61324 353.986 5.74071 355.838C5.86818 357.689 6.7239 359.415 8.12059 360.637L19.2407 370.337C20.6409 371.556 22.4671 372.17 24.3191 372.044C26.1711 371.918 27.8977 371.064 29.1206 369.667L56.0605 338.777L80.3408 310.927L109.971 276.957C110.576 276.265 111.039 275.46 111.333 274.588C111.626 273.716 111.744 272.795 111.681 271.877V271.877Z" fill="#6C63FF"/>
<path id="Vector_2" d="M287.94 209.027L281.181 195.907C280.326 194.261 278.854 193.02 277.087 192.456C275.32 191.892 273.401 192.05 271.75 192.897L216.681 221.287L182.06 239.137L162.411 249.267C161.897 249.531 161.419 249.86 160.991 250.247C160.037 251.076 159.331 252.153 158.951 253.357C158.668 254.233 158.562 255.156 158.639 256.072C158.716 256.989 158.975 257.881 159.4 258.697L162.041 263.827L166.161 271.817C166.581 272.635 167.158 273.362 167.86 273.955C168.562 274.549 169.374 274.998 170.25 275.277C170.946 275.495 171.671 275.606 172.4 275.607C173.511 275.608 174.606 275.34 175.591 274.827L198.931 262.797L229.451 247.057L284.931 218.457C286.577 217.602 287.818 216.13 288.382 214.363C288.946 212.596 288.787 210.678 287.94 209.027V209.027Z" fill="#6C63FF"/>
<path id="Vector_3" d="M229.75 247.687L229.451 247.057L217.63 222.707C216.794 221.052 215.339 219.794 213.581 219.207C212.702 218.914 211.773 218.799 210.849 218.87C209.925 218.94 209.025 219.194 208.201 219.617L179.36 237.097L160.161 248.737C160.015 248.811 159.88 248.905 159.761 249.017C158.661 250.007 158.07 252.547 157.591 254.627C157.42 255.347 157.281 255.977 157.141 256.387C157.091 256.557 157.031 256.737 156.991 256.917C156.59 258.534 156.782 260.24 157.531 261.727L159.891 266.437L164.15 274.917C164.736 276.08 165.634 277.058 166.743 277.741C167.852 278.424 169.128 278.786 170.431 278.787C171.501 278.786 172.556 278.532 173.511 278.047L200.371 267.447L226.63 257.077C228.287 256.243 229.546 254.787 230.13 253.027C230.715 251.267 230.579 249.347 229.75 247.687H229.75Z" fill="#2F2E41"/>
<path id="Vector_4" d="M134.483 210.044C164.04 210.044 188.002 186.083 188.002 156.525C188.002 126.967 164.04 103.006 134.483 103.006C104.925 103.006 80.9635 126.967 80.9635 156.525C80.9635 186.083 104.925 210.044 134.483 210.044Z" fill="#6C63FF"/>
<path id="Vector_5" d="M136.031 370.067C135.979 368.707 135.53 367.393 134.739 366.285C133.948 365.178 132.85 364.327 131.581 363.837C130.775 363.519 129.917 363.356 129.051 363.357H114.291C112.435 363.359 110.655 364.097 109.343 365.41C108.031 366.722 107.293 368.501 107.291 370.357V495.367C107.293 497.223 108.031 499.002 109.343 500.315C110.655 501.627 112.435 502.365 114.291 502.367H129.051C130.907 502.365 132.686 501.627 133.998 500.315C135.311 499.002 136.049 497.223 136.051 495.367V370.357C136.054 370.26 136.048 370.163 136.031 370.067V370.067Z" fill="#6C63FF"/>
<path id="Vector_6" d="M203.091 425.887C202.888 425.41 202.633 424.957 202.331 424.537L177.17 389.337L156.44 360.347H121.081L123.581 363.837L128.031 370.067L141.82 389.347L171.371 430.677L178.94 441.257C180.019 442.766 181.653 443.786 183.483 444.091C185.313 444.397 187.19 443.964 188.701 442.887L200.71 434.297C202.001 433.372 202.94 432.037 203.372 430.509C203.805 428.981 203.705 427.351 203.091 425.887ZM130.791 324.467C129.708 322.959 128.072 321.941 126.24 321.637C124.409 321.333 122.532 321.769 121.02 322.847L109.011 331.427C107.502 332.509 106.484 334.146 106.181 335.977C105.877 337.809 106.312 339.686 107.391 341.197L111.791 347.347H147.15L130.791 324.467Z" fill="#6C63FF"/>
<path id="Vector_7" d="M203.32 426.227C203.25 426.11 203.173 425.997 203.091 425.887C202.162 424.626 200.94 423.61 199.531 422.927L186.32 416.357C182.86 414.637 179.141 415.057 178.031 417.297L171.371 430.677L143.98 485.697C142.86 487.937 144.77 491.157 148.221 492.877L161.431 499.457C162.742 500.127 164.189 500.489 165.661 500.517C167.521 500.517 169.07 499.827 169.721 498.517L203.771 430.117C204.039 429.485 204.138 428.795 204.06 428.113C203.981 427.431 203.726 426.781 203.32 426.227V426.227Z" fill="#6C63FF"/>
<path id="Vector_8" d="M124.21 255.427L121.991 253.247L120.761 252.017L113.701 245.067C112.514 243.899 110.951 243.191 109.29 243.067C109.101 243.057 108.92 243.047 108.73 243.047C108.31 243.057 107.67 242.997 106.92 242.937C104.551 242.737 101.591 242.477 100.56 243.537L86.8906 255.357L58.0004 280.327C56.952 281.385 56.2719 282.753 56.0605 284.227C56.0036 284.581 55.9768 284.939 55.9804 285.297C55.9819 285.615 56.0087 285.933 56.0605 286.247C56.273 287.762 56.9794 289.165 58.0702 290.237L59.2407 291.367L78.1005 309.447C79.4233 310.746 81.2065 311.469 83.0605 311.457C83.8699 311.456 84.6726 311.311 85.4306 311.027C86.4079 310.666 87.2926 310.092 88.0205 309.347L120.891 269.437L123.04 266.827L124.281 265.327C125.582 264.004 126.306 262.219 126.293 260.363C126.28 258.506 125.531 256.732 124.21 255.427V255.427Z" fill="#2F2E41"/>
<path id="Vector_9" d="M127.358 176.361L127.303 174.361C131.023 174.257 134.304 174.024 136.768 172.223C137.467 171.684 138.042 171 138.452 170.219C138.863 169.437 139.101 168.576 139.15 167.695C139.193 167.156 139.112 166.615 138.912 166.113C138.712 165.611 138.399 165.162 137.997 164.8C136.361 163.419 133.728 163.866 131.809 164.746L130.154 165.504L133.327 142.314L135.309 142.586L132.61 162.312C135.217 161.546 137.633 161.876 139.288 163.273C139.923 163.828 140.422 164.522 140.745 165.301C141.067 166.08 141.205 166.924 141.148 167.765C141.09 168.95 140.773 170.107 140.22 171.156C139.668 172.205 138.892 173.121 137.948 173.838C134.781 176.153 130.665 176.268 127.358 176.361Z" fill="#2F2E41"/>
<path id="Vector_10" d="M155.88 144.287H145.108V146.287H155.88V144.287Z" fill="#2F2E41"/>
<path id="Vector_11" d="M121.88 144.287H111.108V146.287H121.88V144.287Z" fill="#2F2E41"/>
<path id="Vector_12" d="M187.371 269.447C186.96 267.867 186.48 266.317 185.931 264.797C182.601 255.503 176.762 247.314 169.06 241.137C168.19 240.427 167.29 239.747 166.36 239.097C161.745 235.842 156.642 233.342 151.241 231.691C151.674 230.147 151.666 228.514 151.22 226.974C150.616 225.033 149.401 223.34 147.756 222.146C146.112 220.952 144.125 220.321 142.093 220.347H129.053C127.016 220.32 125.025 220.952 123.376 222.147C121.726 223.343 120.507 225.04 119.9 226.984C119.455 228.519 119.448 230.148 119.879 231.687C108.932 235.048 99.3519 241.831 92.5449 251.04C85.738 260.248 82.0633 271.396 82.0605 282.847V386.52C82.0605 393.596 84.7505 399.347 88.0605 399.347H183.061C183.101 399.347 210.13 399.347 210.17 399.326C213.431 399.219 216.061 393.51 216.061 386.52C216.061 362.585 210.773 328.947 200.575 307.294L189.061 282.847C189.063 278.327 188.495 273.825 187.371 269.447V269.447Z" fill="#2F2E41"/>
<path id="Vector_13" d="M80.5605 168.847C73.9437 168.847 68.5605 160.772 68.5605 150.847C68.5605 140.922 73.9437 132.847 80.5605 132.847C87.1774 132.847 92.5605 140.922 92.5605 150.847C92.5605 160.772 87.1774 168.847 80.5605 168.847Z" fill="#3F3D56"/>
<path id="Vector_14" d="M187.561 168.847C180.944 168.847 175.561 160.772 175.561 150.847C175.561 140.922 180.944 132.847 187.561 132.847C194.177 132.847 199.561 140.922 199.561 150.847C199.561 160.772 194.177 168.847 187.561 168.847Z" fill="#3F3D56"/>
<path id="Vector_15" d="M190.928 166.032C190.69 166.032 190.455 165.975 190.244 165.866C190.032 165.757 189.849 165.599 189.71 165.406C189.571 165.213 189.48 164.989 189.445 164.753C189.41 164.518 189.431 164.277 189.507 164.052C192.373 155.527 193.236 146.455 192.027 137.542C190.818 128.63 187.57 120.116 182.535 112.663C177.501 105.209 170.816 99.0172 162.999 94.5676C155.183 90.118 146.445 87.5307 137.466 87.0068C128.487 86.4829 119.508 88.0365 111.228 91.5469C102.947 95.0574 95.5866 100.43 89.7195 107.247C83.8525 114.065 79.6366 122.143 77.3992 130.855C75.1619 139.566 74.9635 148.676 76.8194 157.477C76.9005 157.866 76.824 158.271 76.6067 158.604C76.3894 158.936 76.0491 159.169 75.6605 159.251C75.2718 159.333 74.8665 159.257 74.5334 159.041C74.2004 158.824 73.9668 158.485 73.8839 158.096C71.9314 148.843 72.1389 139.265 74.4904 130.105C76.8419 120.945 81.2741 112.451 87.4423 105.283C93.6106 98.1152 101.349 92.4661 110.055 88.7751C118.762 85.0841 128.203 83.4506 137.643 84.0016C147.084 84.5527 156.27 87.2733 164.488 91.9522C172.706 96.6311 179.735 103.142 185.027 110.979C190.32 118.816 193.734 127.768 195.003 137.139C196.273 146.51 195.365 156.048 192.349 165.011C192.249 165.308 192.058 165.567 191.803 165.75C191.548 165.933 191.242 166.032 190.928 166.032V166.032Z" fill="#3F3D56"/>
<path id="Vector_16" d="M111.597 114.849C109.478 117.742 110.523 121.64 112.756 124.135C115.661 127.38 120.295 127.585 124.318 126.982C128.832 126.306 133.62 124.191 138.191 125.617C142.086 126.832 144.865 130.365 148.912 131.252C152.501 132.039 156.792 130.997 158.051 127.172C158.655 125.334 155.759 124.546 155.158 126.374C154.344 128.849 150.829 128.8 148.816 128.115C145.589 127.016 143.103 124.344 139.931 123.067C136.192 121.562 132.135 122.242 128.328 123.099C124.739 123.907 120.61 125.105 117.035 123.596C114.39 122.479 112.285 118.961 114.188 116.363C115.33 114.804 112.728 113.306 111.597 114.849H111.597Z" fill="#2F2E41"/>
</g>
<g id="Group">
<g id="Group_2">
<path id="Vector_17" d="M16.1545 29.8124C16.2005 29.7174 16.2505 29.6244 16.2925 29.5284C16.3025 29.5044 16.3175 29.4814 16.3275 29.4574C16.3405 29.4254 16.3465 29.3914 16.3595 29.3584C16.7435 28.4284 16.9485 27.4544 16.9505 26.4914V24.9704C17.0185 25.1774 17.0875 25.4014 17.1295 25.1164C17.0985 24.2604 17.0335 23.3754 16.9505 22.4814V12.7844C16.9505 10.5114 18.6195 9.45036 20.6775 10.4194L27.5355 13.6424C27.5895 13.6914 27.6475 13.7364 27.7005 13.7874C29.1675 15.2224 30.0545 17.3254 29.8695 19.4054L29.8755 22.5004C29.8675 23.0124 29.9085 23.5394 29.7905 24.0634C29.6785 24.5814 29.4115 25.0914 28.9775 25.4204C28.0895 26.0794 26.9565 26.0924 25.9335 26.0594C24.9095 26.0164 23.8755 26.1924 22.9135 26.5544C20.9875 27.2814 19.3475 28.7624 18.4395 30.6234C17.5225 32.4714 17.3655 34.7314 18.2105 36.6444C18.8245 38.0834 20.0035 39.2504 21.4225 39.9074C24.0615 42.1654 28.2385 41.9984 31.1445 39.3864C32.8965 37.8044 33.8155 35.6614 33.8285 33.5764C33.8285 33.5594 33.8285 20.6544 33.8285 13.8284C33.8285 12.6164 33.3535 11.2904 32.6155 10.1514C32.0455 8.98136 31.2265 7.97336 30.2335 7.15036C29.4495 6.49036 28.5345 6.15836 27.7325 5.78036L25.2565 4.62936C23.6035 3.84936 21.9475 3.04736 20.2895 2.22536L17.7995 0.978362C16.9785 0.592362 16.1575 0.00136159 15.1345 0.000361588C14.6405 -0.00863841 14.1285 0.150362 13.7405 0.478362C13.3515 0.803362 13.1035 1.26336 12.9755 1.73436C12.8405 2.20636 12.8355 2.71036 12.8395 3.17236L12.8305 4.58636L12.7605 10.2654L12.6505 15.9734C12.6715 16.8994 12.4285 17.7584 11.7205 18.1284C11.0185 18.5134 10.0775 18.5114 9.16349 18.4394C7.12749 18.2844 5.07449 18.9424 3.43549 20.2004C1.83049 21.4204 0.601494 23.2514 0.176494 25.2934C-0.266506 27.3254 0.116494 29.5894 1.41549 31.3254C2.65849 33.0454 4.75149 34.1224 6.83749 34.2424C7.03249 34.2564 7.22849 34.2554 7.42249 34.2544C8.30649 34.4454 9.23349 34.4644 10.1555 34.3124C9.57349 34.5124 8.97849 34.6714 8.36449 34.7434C8.46249 34.8694 9.09649 34.9484 10.0585 34.7644C11.0225 34.5814 12.2725 34.1154 13.4895 33.1714C14.5315 32.3874 15.5365 31.1724 16.1545 29.8124ZM31.3165 19.5374V24.2194C31.3165 26.4934 29.7715 27.0754 27.4995 26.9724C25.5475 26.8854 23.4925 27.5774 21.8445 29.0574C18.9365 31.6744 18.3385 35.8144 20.3125 38.6764C19.6915 38.1714 19.1685 37.5514 18.8025 36.8324C17.8545 35.0434 17.9175 32.8114 18.7785 30.9764C19.6325 29.1314 21.2555 27.6484 23.1585 26.9604C24.1195 26.6094 25.1015 26.4764 26.1515 26.5374C26.7085 26.5534 27.3145 26.5344 27.9085 26.4054C28.5015 26.2844 29.1465 25.9974 29.6195 25.4754C30.0835 24.9454 30.2945 24.2664 30.3415 23.6574C30.3815 23.0154 30.3545 22.5474 30.3645 21.9844L30.3685 18.7424V18.5384L30.3585 18.3104C30.3545 18.1784 30.3475 18.0424 30.3245 17.8784C30.2905 17.5574 30.2265 17.2774 30.1545 16.9904C30.0065 16.4204 29.7845 15.8784 29.5105 15.3674C29.4105 15.1824 29.2985 15.0054 29.1855 14.8274C30.4415 16.0804 31.3165 17.8974 31.3165 19.5374ZM4.96749 21.9904C2.37449 24.3254 1.61749 27.8784 2.88949 30.6524C2.21649 29.8034 1.80449 28.7994 1.69949 27.7244C1.57849 26.4564 1.87849 25.1604 2.48949 24.0524C3.45349 22.2684 5.22849 21.0104 7.08749 20.6024C6.33849 20.9434 5.62049 21.4034 4.96749 21.9904ZM14.1335 3.06436C14.1525 2.63736 14.1935 2.35736 14.2815 2.10836C14.3685 1.85836 14.4935 1.68536 14.6105 1.59836C14.7805 1.46736 15.0455 1.42336 15.4555 1.53936C14.9375 1.92436 14.6085 2.59036 14.5455 3.48436C14.4085 3.23836 14.2735 3.55936 14.1335 3.06436Z" fill="black"/>
</g>
</g>
<g id="Group_3">
<g id="Group_4">
<path id="Vector_18" d="M39.1545 122.812C39.2005 122.717 39.2505 122.624 39.2925 122.528C39.3025 122.504 39.3175 122.481 39.3275 122.457C39.3405 122.425 39.3465 122.391 39.3595 122.358C39.7435 121.428 39.9485 120.454 39.9505 119.491V117.97C40.0185 118.177 40.0875 118.401 40.1295 118.116C40.0985 117.26 40.0335 116.375 39.9505 115.481V105.784C39.9505 103.511 41.6195 102.45 43.6775 103.419L50.5355 106.642C50.5895 106.691 50.6475 106.736 50.7005 106.787C52.1675 108.222 53.0545 110.325 52.8695 112.405L52.8755 115.5C52.8675 116.012 52.9085 116.539 52.7905 117.063C52.6785 117.581 52.4115 118.091 51.9775 118.42C51.0895 119.079 49.9565 119.092 48.9335 119.059C47.9095 119.016 46.8755 119.192 45.9135 119.554C43.9875 120.281 42.3475 121.762 41.4395 123.623C40.5225 125.471 40.3655 127.731 41.2105 129.644C41.8245 131.083 43.0035 132.25 44.4225 132.907C47.0615 135.165 51.2385 134.998 54.1445 132.386C55.8965 130.804 56.8155 128.661 56.8285 126.576C56.8285 126.559 56.8285 113.654 56.8285 106.828C56.8285 105.616 56.3535 104.29 55.6155 103.151C55.0455 101.981 54.2265 100.973 53.2335 100.15C52.4495 99.4904 51.5345 99.1584 50.7325 98.7804L48.2565 97.6294C46.6035 96.8494 44.9475 96.0474 43.2895 95.2254L40.7995 93.9784C39.9785 93.5924 39.1575 93.0014 38.1345 93.0004C37.6405 92.9914 37.1285 93.1504 36.7405 93.4784C36.3515 93.8034 36.1035 94.2634 35.9755 94.7344C35.8405 95.2064 35.8355 95.7104 35.8395 96.1724L35.8305 97.5864L35.7605 103.265L35.6505 108.973C35.6715 109.899 35.4285 110.758 34.7205 111.128C34.0185 111.513 33.0775 111.511 32.1635 111.439C30.1275 111.284 28.0745 111.942 26.4355 113.2C24.8305 114.42 23.6015 116.251 23.1765 118.293C22.7335 120.325 23.1165 122.589 24.4155 124.325C25.6585 126.045 27.7515 127.122 29.8375 127.242C30.0325 127.256 30.2285 127.255 30.4225 127.254C31.3065 127.445 32.2335 127.464 33.1555 127.312C32.5735 127.512 31.9785 127.671 31.3645 127.743C31.4625 127.869 32.0965 127.948 33.0585 127.764C34.0225 127.581 35.2725 127.115 36.4895 126.171C37.5315 125.387 38.5365 124.172 39.1545 122.812ZM54.3165 112.537V117.219C54.3165 119.493 52.7715 120.075 50.4995 119.972C48.5475 119.885 46.4925 120.577 44.8445 122.057C41.9365 124.674 41.3385 128.814 43.3125 131.676C42.6915 131.171 42.1685 130.551 41.8025 129.832C40.8545 128.043 40.9175 125.811 41.7785 123.976C42.6325 122.131 44.2555 120.648 46.1585 119.96C47.1195 119.609 48.1015 119.476 49.1515 119.537C49.7085 119.553 50.3145 119.534 50.9085 119.405C51.5015 119.284 52.1465 118.997 52.6195 118.475C53.0835 117.945 53.2945 117.266 53.3415 116.657C53.3815 116.015 53.3545 115.547 53.3645 114.984L53.3685 111.742V111.538L53.3585 111.31C53.3545 111.178 53.3475 111.042 53.3245 110.878C53.2905 110.557 53.2265 110.277 53.1545 109.99C53.0065 109.42 52.7845 108.878 52.5105 108.367C52.4105 108.182 52.2985 108.005 52.1855 107.827C53.4415 109.08 54.3165 110.897 54.3165 112.537ZM27.9675 114.99C25.3745 117.325 24.6175 120.878 25.8895 123.652C25.2165 122.803 24.8045 121.799 24.6995 120.724C24.5785 119.456 24.8785 118.16 25.4895 117.052C26.4535 115.268 28.2285 114.01 30.0875 113.602C29.3385 113.943 28.6205 114.403 27.9675 114.99ZM37.1335 96.0644C37.1525 95.6374 37.1935 95.3574 37.2815 95.1084C37.3685 94.8584 37.4935 94.6854 37.6105 94.5984C37.7805 94.4674 38.0455 94.4234 38.4555 94.5394C37.9375 94.9244 37.6085 95.5904 37.5455 96.4844C37.4085 96.2384 37.2735 96.5594 37.1335 96.0644Z" fill="black"/>
</g>
</g>
<g id="music-note-list-svgrepo-com 1">
<path id="Vector_19" d="M68.5719 61.9444C68.6641 65.3963 65.2401 68.2857 60.9291 68.4009C56.6181 68.5161 53.0447 65.8137 52.9524 62.3618C52.8602 58.91 56.2842 56.0206 60.5952 55.9054C64.9061 55.7902 68.4796 58.4926 68.5719 61.9444Z" fill="black"/>
<path id="Vector_20" fill-rule="evenodd" clip-rule="evenodd" d="M67.7371 30.7056L68.5719 61.9444L65.448 62.0279L64.6132 30.7891L67.7371 30.7056Z" fill="black"/>
<path id="Vector_21" d="M64.5981 30.2267C64.5793 29.5048 64.8111 28.7987 65.254 28.2283C65.697 27.658 66.3238 27.2586 67.0279 27.0982L76.3495 24.9734C76.8001 24.8708 77.2679 24.8694 77.7191 24.9692C78.1704 25.0691 78.5938 25.2679 78.959 25.5511C79.3242 25.8344 79.622 26.1951 79.8309 26.6074C80.0399 27.0196 80.1549 27.473 80.1675 27.935L80.3161 33.4955L64.7801 37.0368L64.5981 30.2267Z" fill="black"/>
</g>
</g>
</svg>
